<svg width="213" height="45" viewBox="0 0 213 45" fill="none" xmlns="http://www.w3.org/2000/svg">
<mask id="mask0_286_1324"  maskUnits="userSpaceOnUse" x="0" y="0" width="213" height="45">
<path d="M212.5 0H0.5V44.2639H212.5V0Z" fill="white"/>
</mask>
<g mask="url(#mask0_286_1324)">
<path d="M14.9768 8.02938C12.8274 10.5027 9.71119 11.921 6.43307 11.921H0.5V0.604492H21.4301L14.9768 8.02938ZM42.3651 0.604492H21.4301V11.921H27.3632C30.6413 11.921 33.7575 10.5027 35.9069 8.02938L42.3651 0.604492ZM56.842 4.49606C54.6923 2.02273 51.5763 0.604492 48.2979 0.604492H42.3651V11.921H63.2952L56.842 4.49606ZM21.4301 14.3502H0.5V25.6666H6.43307C9.71119 25.6666 12.8274 24.2484 14.9768 21.775L21.4301 14.3502ZM42.3602 14.3502H21.4301V25.6666H27.3632C30.6413 25.6666 33.7575 24.2484 35.9069 21.775L42.3602 14.3502ZM63.2902 14.3502H42.3602V25.6666H48.2933C51.5712 25.6666 54.6876 24.2484 56.8369 21.775L63.2902 14.3502ZM21.4301 28.0909H0.5V39.4074H6.43307C9.71119 39.4074 12.8274 37.9891 14.9768 35.5158L21.4301 28.0909ZM42.3602 28.0909H21.4301V39.4074H27.3632C30.6413 39.4074 33.7575 37.9891 35.9069 35.5158L42.3602 28.0909Z" fill="#006963"/>
<path d="M165.506 0.65332H162.145V3.83332H165.506V0.65332Z" fill="white"/>
<path d="M100.018 30.3584C100.018 27.8606 98.2322 26.2559 94.5713 26.2559C90.9101 26.2559 88.9326 28.3562 88.8342 30.8148H91.9557C91.9557 29.4309 92.6718 28.5476 94.537 28.5476C96.23 28.5476 96.9513 29.0384 96.8974 30.1622C96.8431 31.3301 95.1993 31.4725 92.3873 31.9583C89.3349 32.4883 88.3042 33.8329 88.3042 35.8548C88.3042 38.1269 90.0121 39.5402 92.5641 39.5402C95.1158 39.5402 96.4064 38.4214 96.9661 36.7626H97.1132V37.2092C97.1132 38.3772 98.1732 39.29 99.3413 39.29H101.358V36.7921H100.018V30.3536V30.3584ZM96.8974 33.2686C96.8974 35.6486 95.7 37.2632 93.4668 37.2632C92.3483 37.2632 91.5482 36.6939 91.5482 35.5996C91.5482 34.5052 92.1321 34.039 93.5406 33.6906L94.8754 33.3667C95.6313 33.195 96.2644 33.0919 96.8974 32.5962V33.2636V33.2686Z" fill="white"/>
<path d="M77.6192 0.65332H74.1055V17.9617H77.6192V0.65332Z" fill="white"/>
<path d="M108.659 18.217C112.055 18.217 114.372 16.5043 114.892 13.5844H111.614C111.236 14.88 110.171 15.6701 108.659 15.6701C106.927 15.6701 105.828 14.4088 105.627 12.2447H114.936C114.951 12.0239 114.961 11.7981 114.961 11.5724C114.961 8.7506 113.822 6.33618 111.299 5.37433C111.206 5.33999 110.176 4.92773 108.669 4.92773C104.694 4.92773 102.354 7.37163 102.354 11.5724C102.354 15.7731 104.694 18.217 108.669 18.217H108.659ZM108.659 7.44523C110.367 7.44523 111.305 8.63286 111.609 10.2768H105.71C106.014 8.63286 106.952 7.44523 108.659 7.44523Z" fill="white"/>
<path d="M206.626 9.02543C206.626 6.52756 204.84 4.92285 201.179 4.92285C197.518 4.92285 195.54 7.02322 195.442 9.48183H198.563C198.563 8.09793 199.279 7.21461 201.144 7.21461C202.838 7.21461 203.559 7.70535 203.505 8.82916C203.451 9.99711 201.807 10.1395 198.995 10.6253C195.942 11.1553 194.912 12.4999 194.912 14.5217C194.912 16.7939 196.62 18.2072 199.172 18.2072C201.723 18.2072 203.014 17.0883 203.574 15.4296H203.721V15.8762C203.721 17.0442 204.781 17.957 205.949 17.957H207.966V15.4591H206.626V9.02056V9.02543ZM203.505 11.9356C203.505 14.3156 202.308 15.9302 200.074 15.9302C198.956 15.9302 198.156 15.3609 198.156 14.2666C198.156 13.1722 198.74 12.706 200.148 12.3576L201.483 12.0337C202.239 11.862 202.872 11.7589 203.505 11.2632V11.9306V11.9356Z" fill="white"/>
<path d="M83.494 10.802C83.494 9.79593 83.695 9.00584 84.2742 8.43658C84.8534 7.86732 85.5602 7.58269 86.3895 7.58269C88.0677 7.58269 88.8186 8.3924 88.8186 10.0118V17.9667H92.1801V9.48674C92.1801 8.01453 91.7629 6.88093 90.9238 6.08101C90.1139 5.30564 89.0098 4.92285 87.6212 4.92285C85.7268 4.92285 83.8815 6.10064 83.4987 8.1372H83.3515L83.2634 5.17314H80.1372V17.957H83.4987V10.797L83.494 10.802Z" fill="white"/>
<path d="M81.1048 22.0059H74.1021V39.3143H77.6157V33.818H81.0802C85.4576 33.818 88.0292 31.6293 88.0292 27.9095C88.0292 24.1897 85.4576 22.001 81.1048 22.001V22.0059ZM81.2571 31.0944H77.6157V24.7295H81.2571C83.2443 24.7295 84.3879 25.9269 84.3879 27.9095C84.3879 29.8921 83.2151 31.0944 81.2571 31.0944Z" fill="white"/>
<path d="M212.5 0.65332H209.138V17.9617H212.5V0.65332Z" fill="white"/>
<path d="M98.1382 0.113281H97.8779L95.6107 2.73384C95.0807 3.34726 94.806 4.12754 94.806 4.93728V5.17773H92.9658V7.49404H94.8157V13.9276C94.8157 16.5237 96.4057 18.2118 99.1295 18.2118C100.096 18.2118 101.141 17.9812 101.902 17.6229V15.1299C101.446 15.3851 100.808 15.5373 100.194 15.5373C98.9234 15.5373 98.1429 14.8502 98.1429 13.6528V7.49404H101.902V5.17773H98.1382V0.113281Z" fill="white"/>
<path d="M135.523 27.3148L134.089 28.9637H133.942L133.864 26.5345H130.821V39.3183H134.178L134.095 29.2925H138.997V26.2793H137.799C136.926 26.2793 136.097 26.6572 135.527 27.3148H135.523Z" fill="white"/>
<path d="M150.741 9.02543C150.741 6.52756 148.954 4.92285 145.294 4.92285C141.633 4.92285 139.655 7.02322 139.557 9.48183H142.678C142.678 8.09793 143.394 7.21461 145.259 7.21461C146.952 7.21461 147.673 7.70535 147.62 8.82916C147.566 9.99711 145.922 10.1395 143.11 10.6253C140.057 11.1553 139.027 12.4999 139.027 14.5217C139.027 16.7939 140.735 18.2072 143.286 18.2072C145.838 18.2072 147.129 17.0883 147.688 15.4296H147.835V15.8762C147.835 17.0442 148.895 17.957 150.064 17.957H152.081V15.4591H150.741V9.02056V9.02543ZM147.62 11.9356C147.62 14.3156 146.422 15.9302 144.189 15.9302C143.071 15.9302 142.27 15.3609 142.27 14.2666C142.27 13.1722 142.855 12.706 144.263 12.3576L145.598 12.0337C146.354 11.862 146.987 11.7589 147.62 11.2632V11.9306V11.9356Z" fill="white"/>
<path d="M173.55 4.92285C169.374 4.92285 166.876 7.39129 166.876 11.5675C166.876 15.7437 169.374 18.2121 173.55 18.2121C177.726 18.2121 180.195 15.7437 180.195 11.5675C180.195 7.39129 177.726 4.92285 173.55 4.92285ZM173.55 15.5425C171.513 15.5425 170.316 14.0654 170.316 11.5724C170.316 9.07945 171.513 7.57285 173.55 7.57285C175.586 7.57285 176.784 9.07453 176.784 11.5724C176.784 14.0703 175.586 15.5425 173.55 15.5425Z" fill="white"/>
<path d="M156.781 0.113281H156.521L154.254 2.73384C153.724 3.34726 153.449 4.12754 153.449 4.93728V5.17773H151.609V7.49404H153.459V13.9276C153.459 16.5237 155.049 18.2118 157.773 18.2118C158.739 18.2118 159.784 17.9812 160.545 17.6229V15.1299C160.089 15.3851 159.451 15.5373 158.837 15.5373C157.567 15.5373 156.786 14.8502 156.786 13.6528V7.49404H160.545V5.17773H156.781V0.113281Z" fill="white"/>
<path d="M165.506 5.17773H162.145V17.9615H165.506V5.17773Z" fill="white"/>
<path d="M189.072 4.92285C187.178 4.92285 185.333 6.10064 184.95 8.1372H184.803L184.714 5.17314H181.588V17.957H184.95V10.797C184.95 9.79101 185.151 9.00093 185.73 8.43166C186.309 7.8624 187.016 7.57777 187.845 7.57777C189.524 7.57777 190.274 8.38748 190.274 10.007V17.9618H193.636V9.48675C193.636 8.01453 193.219 6.88093 192.38 6.08101C191.57 5.30564 190.466 4.92285 189.077 4.92285H189.072Z" fill="white"/>
<path d="M119.588 7.93601H124.49V4.92285H123.292C122.419 4.92285 121.59 5.30072 121.021 5.95834L119.588 7.6072H119.44L119.362 5.17806H116.319V17.9618H119.676L119.593 7.93601H119.588Z" fill="white"/>
<path d="M109.881 26.2159C108.046 26.2159 106.633 27.217 106.014 28.6941H105.867L105.793 26.5152H102.653V44.1523H106.009V36.9974H106.078C106.736 38.5678 108.232 39.5934 109.881 39.5934C111.667 39.5934 113.091 38.98 114.151 37.7581C115.196 36.5361 115.716 34.9167 115.716 32.9047C115.716 30.8926 115.196 29.2486 114.151 28.0218C113.091 26.8145 111.667 26.2109 109.881 26.2109V26.2159ZM111.457 35.9031C110.872 36.6441 110.077 37.017 109.072 37.017C108.066 37.017 107.266 36.6637 106.711 35.9522C106.127 35.2602 105.837 34.2444 105.837 32.9047C105.837 31.5649 106.122 30.5687 106.687 29.8572C107.256 29.1456 108.046 28.7922 109.072 28.7922C110.097 28.7922 110.907 29.1358 111.467 29.8228C112.026 30.5098 112.306 31.5011 112.306 32.8065C112.306 34.1119 112.021 35.1768 111.457 35.9031Z" fill="white"/>
<path d="M125.732 26.7259C125.638 26.6916 124.608 26.2793 123.101 26.2793C119.126 26.2793 116.785 28.7232 116.785 32.9239C116.785 37.1247 119.126 39.5686 123.101 39.5686C126.497 39.5686 128.813 37.8559 129.333 34.936H126.055C125.677 36.2316 124.613 37.0216 123.101 37.0216C121.369 37.0216 120.27 35.7604 120.068 33.5963H129.378C129.392 33.3754 129.402 33.1497 129.402 32.9239C129.402 30.1022 128.264 27.6877 125.741 26.7259H125.732ZM120.176 31.6284C120.481 29.9844 121.418 28.7968 123.126 28.7968C124.834 28.7968 125.771 29.9844 126.075 31.6284H120.176Z" fill="white"/>
<path d="M134.413 10.007V17.9618H137.775V9.48675C137.775 8.01453 137.358 6.88093 136.519 6.08101C135.709 5.30564 134.605 4.92285 133.216 4.92285C131.322 4.92285 129.477 6.10064 129.094 8.1372H128.947L128.859 5.17314H125.732V17.957H129.094V10.797C129.094 9.79101 129.295 9.00093 129.874 8.43166C130.453 7.8624 131.16 7.57777 131.989 7.57777C133.668 7.57777 134.418 8.38748 134.418 10.007H134.413Z" fill="white"/>
<path d="M37.7969 37.1982H39.5488V37.4829H38.8225V39.4311H38.5134V37.4829H37.7969V37.1982ZM42.3706 37.1982V39.4262H42.0614V37.4338L41.8798 37.9687L41.2909 39.4262H40.9867L40.3978 37.9687L40.2162 37.4191V39.4213H39.912V37.1934H40.3929L40.9867 38.6754L41.1339 39.1023L41.2811 38.6754L41.8749 37.1934H42.3559L42.3706 37.1982Z" fill="#006963"/>
</g>
</svg>
