<svg width="213" height="42" viewBox="0 0 213 42" fill="none" xmlns="http://www.w3.org/2000/svg">
<mask id="mask0_286_1349"  maskUnits="userSpaceOnUse" x="0" y="0" width="213" height="42">
<path d="M212.5 0H0.5V41.6179H212.5V0Z" fill="white"/>
</mask>
<g mask="url(#mask0_286_1349)">
<path d="M43.5563 33.2113C43.6958 33.351 43.9332 33.1834 43.8497 33.0019L27.9286 5.4893L24.912 0.294058C24.8002 0.0566406 24.5908 0.0566406 24.4791 0.0566406C24.3533 0.0566406 24.1858 0.112503 24.088 0.349921L19.7866 14.8184C19.1022 17.0949 20.7781 19.3573 23.1523 19.3573H27.4817C29.9955 19.3573 32.3837 20.4606 34.0456 22.346L43.5563 33.2113ZM16.7979 15.7681L20.1636 4.52567C20.2335 4.31617 19.9541 4.1905 19.8424 4.37206L0.555732 37.7502C0.444006 37.9876 0.5278 38.1691 0.62556 38.2809C0.709355 38.4066 0.890909 38.5183 1.15626 38.4066L1.21212 38.3786L18.3062 32.0941C20.3452 31.3259 21.225 28.9238 20.1357 27.0105L17.5939 22.5834C16.3929 20.5164 16.0996 18.0445 16.7979 15.7681ZM40.7212 40.9204H45.8328C46.0562 40.9204 46.1817 40.7389 46.2377 40.6411C46.2657 40.5573 46.3216 40.3478 46.1817 40.1802L33.3054 25.4184C31.7133 23.5889 28.8224 23.8822 27.6074 25.9771L25.1634 30.2227C24.1299 31.9963 22.5238 33.323 20.6105 34.0353L2.69249 40.5852C2.51093 40.6411 2.53887 40.9204 2.74835 40.9204H40.7212Z" fill="white"/>
<path fill-rule="evenodd" clip-rule="evenodd" d="M76.8224 4.05036L93.1206 40.7384H88.931L82.772 26.8843L81.4313 29.901C81.2499 30.3199 80.8449 30.5853 80.3701 30.5853H62.8567L58.3458 40.7384H54.1562L70.4544 4.05036C70.9848 2.75155 72.256 1.9136 73.6382 1.9136C75.0489 1.9136 76.292 2.75155 76.8224 4.05036ZM82.8835 26.619H82.6601L82.772 26.8843L82.8835 26.619ZM82.6465 26.619L73.9316 7.01108C73.8201 6.74574 73.4287 6.74574 73.3172 7.01108L64.6028 26.619H82.6465ZM150.715 41.6043C139.208 41.6043 129.906 32.3031 129.906 20.7953C129.906 9.28753 139.208 -0.0136719 150.715 -0.0136719C162.237 -0.0136719 171.538 9.28753 171.538 20.7953C171.538 32.3031 162.237 41.6043 150.715 41.6043ZM167.753 20.7953C167.753 11.3684 160.142 3.74311 150.701 3.74311C141.275 3.74311 133.649 11.3684 133.649 20.7953C133.649 30.2361 141.275 37.8614 150.701 37.8614C160.142 37.8614 167.753 30.2361 167.753 20.7953ZM115.731 20.3903C115.55 20.6556 115.55 20.9768 115.731 21.2422L128.817 40.6965H124.264L112.603 23.365C112.366 23.0158 111.807 23.0158 111.569 23.365L99.908 40.6965H95.3551L108.469 21.2422C108.65 20.9768 108.65 20.6556 108.469 20.3903L95.3551 0.936H99.908L111.597 18.2954C111.835 18.6446 112.393 18.6446 112.631 18.2954L124.292 0.936H128.845L115.731 20.3903ZM212.486 0.936V40.6685H208.645L181.51 4.72071V40.6685H177.767V4.51121C177.767 2.62585 179.15 0.991862 180.979 0.782377C182.25 0.64272 183.493 1.14549 184.289 2.15102L208.743 34.5236V0.936H212.486Z" fill="white"/>
</g>
</svg>
