<svg width="142" height="97" viewBox="0 0 142 97" fill="none" xmlns="http://www.w3.org/2000/svg">
<mask id="mask0_286_1315"  maskUnits="userSpaceOnUse" x="0" y="0" width="142" height="97">
<path d="M141.5 0H0.5V96.8913H141.5V0Z" fill="white"/>
</mask>
<g mask="url(#mask0_286_1315)">
<path d="M70.5653 48.2882L69.3843 51.0656C69.3843 51.0656 67.2896 50.6042 63.7367 56.3441C63.6075 56.5654 62.6019 55.9287 63.1461 54.9783L65.4255 51.1488C65.5178 50.9274 65.3793 50.6505 65.1024 50.6505L67.5662 46.5533C67.8801 46.009 69.5224 43.1851 70.4731 42.1885L72.5215 40.1401C72.66 40.0478 72.8447 40.2323 72.7522 40.3707L70.4268 45.2338C69.4302 47.1438 70.0207 47.8268 70.3809 47.9653C70.519 48.0112 70.6115 48.1959 70.5653 48.2882Z" fill="white"/>
<path fill-rule="evenodd" clip-rule="evenodd" d="M115.338 36.8647C115.338 45.0591 112.653 52.6536 108.15 58.753C106.83 58.1625 105.917 57.3413 105.188 56.3447C99.9556 49.83 96.2275 45.6496 95.3601 44.7362C93.4961 42.7337 92.6749 42.5953 91.2632 41.9125C90.9956 41.7741 90.8571 41.6449 90.7186 41.368L83.5764 28.8551C83.0781 27.8032 82.3029 26.945 81.3526 26.2622L79.5715 25.0349C79.2116 24.758 78.7133 24.758 78.3442 25.0349L76.8863 26.0776C76.7571 26.1699 76.6649 26.2622 76.5724 26.3914L73.2045 31.0789L71.5711 32.3618L60.2855 46.6924L59.2336 47.1445C59.0061 47.237 58.8244 47.3752 58.6891 47.5599L51.8238 56.3447C51.233 57.0737 50.3656 58.0703 48.8154 58.753C44.3122 52.6536 41.627 45.0591 41.627 36.8647C41.627 16.5177 58.0986 0 78.4827 0C98.8667 0 115.375 16.5177 115.338 36.8647ZM50.0889 36.9572L51.5469 34.9085L49.1383 35.6837L47.6804 33.6353V36.1358L45.2721 36.911L47.6804 37.6862V40.187L49.1383 38.1382L51.5469 38.9135L50.0889 36.9572ZM53.5953 47.1445L51.5469 45.6958L52.3221 43.2783L50.2734 44.7362L48.2249 43.2783L49.0001 45.6958L46.9514 47.1445H49.4522L50.2274 49.5623L51.0023 47.1445H53.5953ZM53.4109 26.6221H50.9101L50.1349 24.2136L49.36 26.6221H46.8592L48.9076 28.08L48.1327 30.4884L50.1811 29.0398L52.2296 30.4884L51.4547 28.08L53.4109 26.6221ZM55.5056 20.0704L57.9139 19.2952L55.5056 18.5201V16.0194L54.0476 18.0679L51.6391 17.2928L53.097 19.3414L51.6391 21.3899L54.0476 20.6148L55.5056 22.6634V20.0704ZM64.3734 13.8785L62.3249 12.4205L63.1001 10.0121L61.0514 11.4701L59.0029 10.0121L59.7779 12.4205L57.7294 13.8785H60.2395L61.0054 16.2962L61.7804 13.8785H64.3734ZM72.1064 10.695L70.6574 8.6464L72.1064 6.59784L69.6978 7.37297L68.2399 5.32441V7.82513L65.8313 8.60027L68.2399 9.3754V11.8761L69.6978 9.82756L72.1064 10.695ZM81.7031 6.09955H79.2023L78.4274 3.6911L77.6615 6.09955H75.1514L77.2001 7.55752L76.4249 9.96597L78.4734 8.51722L80.5221 9.96597L79.7469 7.55752L81.7031 6.09955ZM91.1707 8.508L88.7624 7.74208V5.23214L87.3045 7.2807L84.8959 6.50557L86.3448 8.55413L84.8959 10.6027L87.3045 9.82756L88.7624 11.8761V9.3754L91.1707 8.508ZM106.867 36.8188L105.409 38.8672L107.818 38.0923L109.276 40.1407V37.6306L111.684 36.8647L109.276 36.0898V33.589L107.818 35.6284L105.409 34.8625L106.867 36.8188ZM96.809 13.8785H99.3098L97.261 12.4205L98.0363 10.0121L95.9878 11.4701L93.9484 10.0121L94.7143 12.4205L92.6749 13.8785H95.1757L95.9509 16.287L96.809 13.8785ZM102.899 20.7071L105.308 21.4822L103.859 19.4336L105.308 17.3851L102.899 18.1602L101.441 16.1116V18.6124L99.0329 19.3875L101.441 20.1626V22.6634L102.899 20.7071ZM103.407 26.6221L105.455 28.08L104.68 30.4977L106.729 29.0398L108.768 30.4977L108.002 28.08L110.042 26.6221H107.541L106.766 24.2136L106 26.6221H103.407ZM110.134 47.1538L108.095 45.6958L108.86 43.2783L106.812 44.7362L104.772 43.2783L105.538 45.6958L103.499 47.1538H106L106.775 49.5623L107.541 47.1538H110.134Z" fill="white"/>
<path d="M84.0751 56.9813L84.398 58.7994H77.9385C77.8003 58.2548 77.7078 57.7103 77.7078 57.1567C77.7078 54.1114 80.5314 48.3349 80.5314 48.3349L79.618 47.9658C78.3908 47.4675 77.0251 47.1909 75.6593 47.1909H72.1157L75.9363 38.3228C76.2039 37.723 75.7515 37.0496 75.1148 37.0496L79.2582 27.4434L80.1163 28.0339C80.7531 28.4861 81.3067 29.1228 81.6665 29.8518L81.7127 29.8981L90.4514 45.2343C90.5346 45.3728 90.719 45.2806 90.719 45.1421V44.0071C90.8574 44.0533 90.9959 44.1455 91.1344 44.1918C92.0385 44.5979 92.6293 44.8285 93.8103 46.148C93.8565 46.148 97.6398 50.2452 103.555 57.6181C103.822 58.0242 104.145 58.3933 104.505 58.7531C100.999 58.7531 97.4091 58.6609 96.0897 58.5684L94.5855 56.0679C93.8103 54.5638 90.719 51.0201 90.719 51.0201C90.4054 50.6513 89.8978 51.0201 90.1285 51.5647L91.7708 55.9295C92.3154 57.249 92.0385 57.932 91.854 58.2086C88.0338 57.8395 84.1673 56.9354 84.0751 56.9813Z" fill="white"/>
<path d="M32.5288 78.6387C31.209 79.0538 29.8436 79.3677 28.4778 79.5062C25.8017 88.9737 19.4715 96.799 9.14564 96.799C8.60118 96.799 8.14902 96.799 7.64151 96.7527C3.27678 96.3466 0.406955 94.1135 0.499232 90.2473C0.499232 88.9275 0.99753 87.9678 2.18791 87.9678H2.23405C2.95381 87.9678 3.59052 88.6046 3.55361 89.3336C3.55361 89.7027 3.36907 90.4317 3.36907 90.93C3.36907 93.477 4.82704 95.341 7.59537 95.7931C8.05676 95.8393 8.50891 95.8853 8.96107 95.8853C22.2029 95.8853 22.5259 74.0433 32.4366 66.3103C32.8979 65.9874 33.304 65.6738 33.7561 65.3969L34.079 65.7567C33.8023 66.0336 33.6269 66.3565 33.4884 66.5319C31.3475 69.6325 30.028 73.7663 28.9852 77.5499L28.7545 78.2326C33.9405 77.8635 38.259 73.4527 38.259 68.3127C38.259 62.1671 33.35 59.8417 27.3428 59.8417C24.7036 59.7955 22.1106 60.2571 19.6099 61.2075C14.3316 63.1637 9.23791 67.676 9.23791 74.4124C9.23791 77.6881 10.742 80.7794 14.3778 80.7794C17.6075 80.7794 19.4253 78.3249 19.2869 75.2705C19.25 74.9107 19.5176 74.1817 20.5696 74.1817C21.843 74.1817 21.7969 75.2705 21.7969 75.2705C21.7969 79.183 18.5671 81.4161 14.4701 81.4161C11.148 81.4161 8.8688 80.2351 7.59537 78.3711C6.78333 77.0976 6.32195 75.5474 6.36808 73.951C6.36808 72.133 6.78333 70.3152 7.59537 68.7188C10.5575 62.6654 18.6502 58.7529 27.4812 58.7529C35.7585 58.7529 42.6794 61.8902 42.6794 68.4419C42.6794 74.0895 37.2625 77.319 32.5288 78.6387Z" fill="white"/>
<path fill-rule="evenodd" clip-rule="evenodd" d="M139.082 75.9539H141.453L140.946 77.052H138.537C138.399 77.4118 137.587 79.1837 136.812 81.0107C135.898 83.1424 134.901 85.3755 134.855 85.4215C134.172 87.1933 133.711 88.5128 133.711 89.4724C133.711 90.4321 134.172 90.8381 134.948 90.8381C135.63 90.7922 136.267 90.5615 136.812 90.1092C137.808 89.3802 138.814 88.1992 139.672 86.9716L140.309 87.5624C139.358 88.9282 138.26 90.3861 136.858 91.3364C135.852 92.0194 134.717 92.4346 133.536 92.4346C131.755 92.4346 130.481 91.3827 130.481 89.2418C130.481 88.4299 130.62 87.7009 130.897 86.9257C129.762 88.4668 127.621 90.5153 125.48 90.5153C124.068 90.5153 123.431 89.6109 123.431 88.4668C123.477 87.6084 123.708 86.741 124.068 85.966C124.483 85.0154 125.028 83.8251 125.803 82.238C126.615 80.5031 127.528 78.7776 127.528 78.1408V78.0486C127.528 77.7717 127.298 77.5963 127.03 77.5963C125.48 77.5963 123.847 79.8204 122.158 83.6037L119.205 90.2476H115.514L116.658 87.7009C115.339 89.288 113.973 90.5615 112.192 90.5615C110.651 90.5615 110.328 89.5187 110.328 88.4299C110.328 88.0176 110.374 87.6053 110.466 87.1933H110.42C108.962 89.1495 106.96 90.5615 105.465 90.5615C103.961 90.5615 103.232 89.6571 103.232 88.3374C103.278 87.4702 103.508 86.6488 103.869 85.8738C104.413 84.6003 105.142 83.0592 105.825 81.6475L106.415 80.4202C105.917 80.6876 105.372 80.826 104.828 80.826C104.413 80.8723 104.007 80.7801 103.638 80.5953C103.508 82.0073 103.047 83.373 102.457 84.6925C100.823 88.3374 98.138 90.6537 94.8161 90.6537C91.9924 90.6537 90.9033 88.9741 90.7652 87.0641V86.5565C88.9471 88.9741 87.3507 90.5615 85.2191 90.5615C83.5767 90.5615 82.9862 89.6109 82.9862 88.559C83.0322 87.8301 83.2169 87.1101 83.5304 86.4274L86.8064 79.4603C86.9909 79.1005 87.0831 78.6391 87.1293 78.233C87.1293 77.8179 86.9909 77.6425 86.6217 77.6425C85.3945 77.6425 83.8074 79.2296 82.3494 82.5516L78.935 90.2476H75.2069L79.9871 79.1837C80.1622 78.8698 80.2547 78.5006 80.3007 78.1408V78.0486C80.2547 77.7717 80.0331 77.5963 79.8024 77.6425C78.7965 77.6425 76.8403 79.4143 75.3916 82.69L72.0697 90.2476H68.4245L69.5689 87.7009C68.0647 89.5187 66.8375 90.469 65.3333 90.469C63.9675 90.469 63.2848 89.4724 63.2848 88.2914C63.2848 87.9685 63.2848 87.7009 63.3311 87.424C62.3342 88.6512 60.5534 90.469 58.6431 90.469C56.8253 90.469 55.9119 89.3802 55.9579 87.6084C55.9579 85.5137 57.1945 82.967 58.9663 80.5494C58.1911 81.0567 57.3699 81.4168 56.5947 81.4168C55.6443 81.4168 55.2752 80.9185 55.2752 80.2355C55.2752 79.5528 55.8287 78.8238 55.8287 78.5469C55.8287 78.4547 55.7825 78.4177 55.6443 78.4177C55.2752 78.4177 53.9554 79.7372 52.8206 82.3302L49.3233 90.2476H45.7706L46.9054 87.6546C45.54 89.3802 43.8141 90.469 42.4947 90.469C41.0367 90.469 40.5384 89.6109 40.5384 88.3836C40.5847 88.1529 40.6306 87.876 40.6769 87.6546C39.7632 88.8819 38.1299 90.469 36.0814 90.469C34.2636 90.469 33.35 89.3802 33.3962 87.6084C33.3962 85.4215 34.7157 82.7363 36.6259 80.2355C38.3515 77.9101 41.6272 75.64 44.9954 75.64C47.2746 75.64 49.0464 76.0461 48.7694 76.6829L45.0414 85.1446C44.6816 85.8738 44.0911 87.2393 44.0911 87.8301C44.0911 88.1992 44.2665 88.3374 44.5431 88.3374C45.7706 88.3374 48.0035 85.1908 49.3233 82.1918L52.1376 75.8154H55.4136L54.463 78.1408C55.5981 76.8213 57.1945 75.5478 58.5049 75.5478C59.1876 75.5478 59.4646 75.9077 59.4646 76.4153C59.4646 77.5503 58.2373 79.0083 58.2373 79.5065C58.2373 79.645 58.3295 79.7742 58.5509 79.7742C59.0122 79.7742 59.9166 79.2759 61.1439 78.233C62.8787 76.7291 65.2873 75.5941 67.6127 75.5941C69.8825 75.5941 71.6543 75.9999 71.3867 76.6366L67.6586 85.1079C67.428 85.6984 66.7912 87.1101 66.7912 87.7009C66.7912 88.0607 66.9759 88.1992 67.2435 88.1992C68.4246 88.1992 70.6117 85.2371 71.9312 82.238L74.7549 75.8617H78.0768L77.1172 78.233C78.5751 76.5444 80.2085 75.5941 81.8049 75.5941C83.0784 75.5941 83.6689 76.2305 83.6689 77.4581C83.6689 77.7347 83.6689 77.9564 83.6227 78.233C85.1269 76.5907 86.9909 75.5941 88.7164 75.5941C89.9437 75.5941 90.7189 76.369 90.7189 77.4581C90.7189 78.5006 90.2669 79.5065 89.5839 81.1029L87.1756 86.1967C87.0371 86.5103 86.668 87.3318 86.668 87.7009C86.668 88.0607 86.8524 88.1992 87.1293 88.1992C88.2181 88.1992 89.5839 86.5103 90.9033 84.3787C91.4016 82.69 92.1309 81.0567 93.0905 79.5528C94.4929 77.3656 96.6339 75.5941 99.6882 75.5941C101.866 75.5941 103.324 76.8673 103.555 79.1837C103.684 79.4603 104.053 79.7372 104.736 79.7372C106.194 79.7372 107.098 78.4547 107.643 77.4118L108.372 75.8154H112.063L108.87 82.7363L107.329 86.1505C107.098 86.6028 106.83 87.2855 106.83 87.6546V87.7838C106.83 88.0607 107.098 88.2452 107.329 88.1992C108.787 88.1992 111.103 84.6463 112.017 82.5516L114.97 75.8154H118.651L115.606 82.7363C115.606 82.7363 113.973 86.6488 113.834 86.9257C113.696 87.1933 113.65 87.424 113.604 87.7009C113.604 88.0145 113.696 88.1992 114.019 88.1992C115.422 88.1992 117.701 84.4618 118.836 82.238L121.613 75.8617H125.028L124.114 78.0486C125.526 76.5907 127.03 75.5941 128.71 75.5941C130.168 75.5941 130.943 76.5444 130.943 77.7347C130.943 78.916 129.762 81.3243 128.986 82.8748C128.479 83.9173 127.759 85.3752 127.344 86.3811C127.03 87.1933 126.938 87.4702 126.938 87.7838C126.938 88.0607 127.122 88.1992 127.436 88.1992C128.802 88.1992 131.164 84.9694 132.668 81.6475L134.809 76.9598H133.028L133.536 75.8617H135.215L136.627 72.6319L137.448 70.7217H141.084L139.082 75.9539ZM42.7253 81.9151L45.0414 76.7751C43.2236 76.7751 41.535 78.0486 40.2155 79.8204C38.3515 82.3671 36.8936 85.56 36.8566 87.3318C36.8566 88.0145 37.2165 88.1992 37.7148 88.1992C39.1264 88.1992 40.9905 85.7813 42.7253 81.9151ZM65.3333 81.9151L67.6496 76.7751C65.8316 76.7751 64.1523 78.0486 62.8328 79.8204C60.9688 82.3671 59.5105 85.56 59.4646 87.3318C59.5105 88.0145 59.8706 88.1992 60.378 88.1992C61.8269 88.1992 63.6077 85.8738 65.3333 81.9151ZM99.7251 76.8213C98.9962 76.8213 98.3594 77.3656 97.4091 78.6854C95.3603 81.555 93.8564 85.7354 93.681 87.5162C93.5426 88.559 93.7639 89.2418 94.6314 89.2418C95.2681 89.2418 95.9511 88.8819 96.7723 87.7376C98.8208 84.9232 100.546 80.1433 100.639 78.1871C100.639 77.4118 100.454 76.8213 99.7251 76.8213Z" fill="white"/>
</g>
</svg>
