<svg width="213" height="56" viewBox="0 0 213 56" fill="none" xmlns="http://www.w3.org/2000/svg">
<path d="M203.23 16.8992C203.574 17.0402 204.053 17.1969 204.586 17.1969C205.239 17.1969 205.623 16.9305 205.623 16.3821C205.623 15.766 205.187 15.578 204.469 15.3273C203.626 15.0296 203.113 14.6327 203.113 13.745C203.113 12.784 203.738 12.2461 204.798 12.2461C205.264 12.2461 205.762 12.3662 206.082 12.5073L205.932 13.1861C205.588 13.0608 205.219 12.9668 204.843 12.9668C204.194 12.9668 203.883 13.2279 203.883 13.7188C203.883 14.2515 204.212 14.4343 204.843 14.6589C205.715 14.9721 206.397 15.3011 206.397 16.377C206.397 17.4528 205.612 17.9228 204.619 17.9228C204.009 17.9228 203.447 17.7869 203.084 17.6199L203.23 16.9044V16.8992ZM212.5 12.3401V17.8235H211.788V14.6537C211.788 14.3246 211.802 14.0217 211.822 13.7397C211.41 14.7581 210.887 15.7973 210.209 16.9357H209.594C208.91 15.8026 208.388 14.7529 207.957 13.7345C207.986 14.0112 208 14.3194 208 14.6589V17.8287H207.294V12.3454H208.078C208.572 13.6509 209.153 14.8363 209.903 16.121C210.645 14.8363 211.212 13.6562 211.706 12.3454H212.495L212.5 12.3401ZM89.6299 39.8928C87.4115 40.9007 84.8976 41.543 82.432 41.543C77.5984 41.543 74.5906 38.9372 74.1013 33.2501H90.9133C91.01 32.2423 91.1118 31.0724 91.1118 29.6885C91.1118 22.9362 87.2661 17.8861 80.7564 17.8861C73.559 17.8861 68.9722 23.6829 68.9722 31.9759C68.9722 40.9581 74.1496 46.1178 81.9915 46.1178C85.1978 46.1178 88.1522 45.4284 90.4724 44.2586L89.6345 39.898L89.6299 39.8928ZM80.7564 22.2937C84.5537 22.2937 86.2782 25.3802 86.2782 28.9365C86.2782 29.2551 86.2782 29.4692 86.2294 29.7878H74.1496C74.5953 25.2182 76.9107 22.2937 80.7564 22.2937ZM93.4705 45.4757H98.3528C99.3895 41.1671 101.457 37.924 103.923 34.5244C106.093 37.3443 108.854 41.5953 110.433 45.4757H115.857C113.392 39.4698 110.878 35.7464 107.526 31.6521C111.421 27.4534 113.741 23.6777 115.019 18.5232H109.939C109.299 21.8707 107.376 25.1138 104.858 28.409C102.489 25.2704 100.024 21.3381 99.0406 18.5232H93.6642C95.3403 23.5732 98.0039 27.349 101.307 31.2813C97.1661 35.9605 94.8993 39.9451 93.4658 45.4757H93.4705ZM137.842 39.8928C135.624 40.9007 133.109 41.543 130.645 41.543C125.811 41.543 122.803 38.9372 122.314 33.2501H139.126C139.223 32.2423 139.324 31.0724 139.324 29.6885C139.324 22.9362 135.478 17.8861 128.969 17.8861C121.771 17.8861 117.184 23.6829 117.184 31.9759C117.184 40.9581 122.362 46.1178 130.204 46.1178C133.411 46.1178 136.364 45.4284 138.685 44.2586L137.847 39.898L137.842 39.8928ZM128.969 22.2937C132.766 22.2937 134.491 25.3802 134.491 28.9365C134.491 29.2551 134.491 29.4692 134.442 29.7878H122.362C122.808 25.2182 125.123 22.2937 128.969 22.2937ZM148.802 45.4757V6.9873L143.824 7.3059V45.4757H148.802ZM176.086 31.9707C176.086 23.5732 171.747 17.8809 164.351 17.8809C156.955 17.8809 152.663 23.568 152.663 31.9707C152.663 40.3733 157.051 46.1124 164.351 46.1124C171.65 46.1124 176.086 40.4255 176.086 31.9707ZM157.743 31.9707C157.743 26.174 160.011 22.4035 164.351 22.4035C168.69 22.4035 170.957 26.1791 170.957 31.9707C170.957 37.7622 168.836 41.5953 164.351 41.5953C159.866 41.5953 157.743 37.8196 157.743 31.9707ZM185.231 45.4757V23.7874C186.907 22.8839 188.927 22.4035 191 22.4035C194.749 22.4035 196.57 24.6386 196.57 28.5187V45.4757H201.548V28.1428C201.548 21.6566 197.902 17.8809 191 17.8809C187.202 17.8809 183.308 18.8366 180.252 20.3772V45.4703H185.231V45.4757Z" fill="white"/>
<path d="M52.3989 33.6585C51.6441 31.3654 50.4205 29.0155 49.3223 27.0226C47.9197 24.4708 47.5182 21.9758 47.9825 18.6683C48.6596 13.8492 47.4699 9.43389 44.7949 6.85615C43.0391 5.16352 39.8222 3.45023 34.4868 4.9306C30.143 6.13147 26.133 3.85397 22.9114 2.02159C20.4347 0.61367 18.4758 -0.499212 16.9665 0.23063C16.0909 0.655079 15.4863 1.66961 15.1187 3.33117C14.1512 7.7206 13.2177 10.7538 12.1777 12.8812C11.3118 14.6515 10.3879 15.7851 9.09639 16.6599C5.8845 18.8391 3.52395 21.2667 2.08247 23.8702C0.810287 26.1945 0.287871 28.6635 0.578102 31.0084C0.834473 33.0633 1.71001 35.0043 3.10311 36.6089C4.45753 38.1721 6.23278 39.342 8.23537 40.0046C9.82198 40.5273 11.0893 41.4435 12.1051 42.7996C13.0726 44.0937 13.8223 45.8068 14.3931 48.0325C14.901 50.0206 15.7137 51.6874 16.8069 53.0019C17.8952 54.3114 19.2062 55.1916 20.7008 55.616C21.3683 55.8072 22.0553 55.9008 22.7614 55.9008C23.8401 55.9008 24.9624 55.678 26.1039 55.2276C28.092 54.4513 30.0656 53.028 31.9763 50.9985C33.8338 49.0266 35.5414 47.7792 37.3456 47.0803C38.9418 46.4594 40.422 46.3504 41.9845 46.2316C43.7645 46.0971 45.6077 45.9571 47.7891 45.0666C50.4302 43.985 52.1182 42.37 52.8051 40.2686C53.4004 38.4465 53.2698 36.288 52.4086 33.6585H52.3989ZM48.6113 33.5239C48.2873 37.287 46.6138 40.3772 43.6437 42.7117C42.3376 43.7313 41.0654 44.4042 39.769 44.9892C40.6639 44.2593 41.5056 43.4518 42.2844 42.5565C44.1177 40.4497 45.5106 38.0221 46.4251 35.3356C47.31 32.7423 47.7116 30.0248 47.62 27.2556C47.6005 26.6499 47.5521 26.0496 47.4843 25.4542C47.5763 25.651 47.6586 25.8372 47.7455 26.034C48.5146 28.736 48.8097 31.2463 48.6164 33.5239H48.6113ZM28.3726 48.4933C28.1405 48.5037 27.9082 48.5091 27.676 48.5091C22.8195 48.5091 18.2145 46.5732 14.6446 43.0119C10.9007 39.2798 8.74328 34.2175 8.55948 28.7463C8.37567 23.2751 10.1993 18.0574 13.6821 14.0562C17.1696 10.0498 21.9004 7.7413 27.0133 7.54461C27.2456 7.53426 27.4777 7.52909 27.7099 7.52909C32.5664 7.52909 37.1714 9.46498 40.7413 13.0262C44.4853 16.7582 46.6426 21.8205 46.8267 27.2918C47.0103 32.7631 45.1866 37.9805 41.7039 41.9818C38.2162 45.9882 33.4855 48.2967 28.3726 48.4933ZM41.2783 12.4051C39.3094 10.4433 37.0409 8.95253 34.5303 7.97423C33.1323 7.43072 31.6909 7.05802 30.23 6.86133C35.488 6.29712 39.8803 8.75583 42.473 13.7094C42.0908 13.2591 41.6991 12.8243 41.2783 12.4051ZM19.5398 8.54361C17.102 9.70825 14.9397 11.3698 13.1064 13.4765C13.0484 13.5438 12.9952 13.6163 12.9371 13.6836C13.1596 13.1556 13.3821 12.5914 13.6143 11.9858C13.8465 11.5096 14.0835 11.0281 14.335 10.5209C16.2071 6.80441 19.4141 6.939 23.4725 7.10978C23.5451 7.10978 23.6225 7.115 23.695 7.12012C22.2681 7.43072 20.8798 7.90173 19.5398 8.54361ZM7.76617 28.767C7.85805 31.5362 8.43851 34.2175 9.49304 36.7331C10.117 38.2239 10.8958 39.6215 11.8149 40.9103C9.32374 38.8968 7.6162 36.1431 6.97287 33.0529C6.31503 29.8902 6.76485 26.5102 8.26441 23.1974C7.8726 25.0143 7.69846 26.8777 7.76134 28.767H7.76617ZM20.8459 48.0537C23.042 48.9128 25.3348 49.3425 27.6712 49.3425C27.913 49.3425 28.1549 49.3425 28.3919 49.3267C29.5915 49.2804 30.7719 49.1197 31.9279 48.8506C29.9689 50.0616 27.913 50.6983 25.8959 50.6983C25.4752 50.6983 25.0591 50.6727 24.648 50.6155C22.2245 50.3001 20.0719 49.0783 18.4224 47.0956C18.316 46.9665 18.2096 46.8423 18.0984 46.7181C18.9788 47.2356 19.893 47.6806 20.8459 48.0537ZM44.6982 16.5253C44.3255 15.7437 43.9435 14.931 43.5712 14.1236C42.2651 11.2922 40.3592 9.05085 38.0615 7.65328C36.712 6.83545 35.251 6.31264 33.6935 6.06938C36.3782 5.77953 38.7726 6.37996 40.6784 7.8448C41.9022 8.78688 42.9131 10.0551 43.6776 11.6131C44.4175 13.1193 44.8915 14.8275 45.0946 16.6858C45.1285 17.0066 45.1722 17.3173 45.2155 17.6278C45.0416 17.2603 44.8674 16.8927 44.6982 16.5253ZM23.4967 6.26607C21.4602 6.17809 19.5398 6.10042 17.8662 6.55078C16.6907 6.8665 15.7282 7.42036 14.9397 8.24337C15.0752 7.8448 15.2058 7.44106 15.3461 7.01662C16.0184 4.95648 17.0003 4.237 18.4611 4.237C19.5641 4.237 20.9379 4.65111 22.6551 5.20497C23.8837 5.60353 25.2478 6.04868 26.7086 6.32817C25.6203 6.34892 24.5512 6.30747 23.5016 6.26607H23.4967ZM8.3708 21.2202C6.15056 25.2109 5.40076 29.3674 6.20861 33.2392C6.64393 35.3304 7.53399 37.2766 8.80616 38.9641C6.3392 37.3491 4.7139 34.8697 4.2979 32.0332C3.90609 29.3415 4.43818 25.1075 8.98996 20.0503C8.78683 20.454 8.58364 20.8474 8.37567 21.2202H8.3708ZM17.8373 47.66C19.6173 49.7979 21.9391 51.1128 24.5561 51.4543C25.001 51.5111 25.451 51.5425 25.9056 51.5425C27.4777 51.5425 29.0643 51.1799 30.617 50.4913C27.9711 52.443 25.1994 53.1936 22.6889 52.6086C20.1687 52.0186 18.0935 50.1395 16.8407 47.3184C16.5408 46.6402 16.1586 45.9571 15.7137 45.2844C16.4103 45.9986 17.1165 46.7905 17.842 47.6653L17.8373 47.66ZM41.7232 44.9478C42.5117 44.5181 43.3003 44.0212 44.108 43.3846C47.2714 40.9051 49.0514 37.6132 49.3948 33.5964C49.4868 32.5094 49.4673 31.3706 49.3516 30.1957C49.9465 32.1109 50.2611 33.8294 50.2801 35.3615C50.2996 37.0645 49.9609 38.5759 49.2693 39.8596C48.4955 41.3037 47.2524 42.5097 45.5737 43.4518C44.2046 44.2231 42.9666 44.6269 41.7232 44.9426V44.9478ZM44.2725 7.48247C46.7491 9.86872 47.8472 14.0045 47.2087 18.5441C47.0488 19.6724 46.9958 20.7025 47.0344 21.6859C46.8941 21.3444 46.7537 21.0079 46.6041 20.6715C46.2848 19.4032 46.0478 18.0678 45.8833 16.5926C45.6704 14.6308 45.1625 12.8243 44.3789 11.2249C43.5564 9.54778 42.4681 8.18127 41.1428 7.16674C39.8851 6.19879 38.4339 5.58283 36.8473 5.31364C40.5623 4.85298 42.9085 6.16775 44.2725 7.48247ZM17.3003 0.996709C17.5179 0.893183 17.7598 0.846599 18.021 0.846599C19.1722 0.846599 20.7636 1.75243 22.5487 2.76697C24.5367 3.90055 26.8199 5.18945 29.3158 5.77953C27.0133 5.73808 24.8512 5.03932 22.8823 4.39746C21.0007 3.78668 19.3803 3.2587 17.9775 3.41399C17.0052 3.52269 16.2361 3.94714 15.6267 4.71838C15.7184 4.33017 15.8056 3.93679 15.8975 3.52787C16.2022 2.13547 16.6618 1.30728 17.3052 1.00188L17.3003 0.996709ZM3.68358 36.0344C2.40172 34.554 1.59875 32.7786 1.36173 30.8945C1.08601 28.71 1.56005 26.4895 2.76935 24.3C4.14311 21.8102 6.41658 19.4809 9.52692 17.3742C9.93324 17.0947 10.3105 16.7893 10.6637 16.4476C10.6153 16.5512 10.5717 16.6496 10.5234 16.753C10.0009 17.6175 9.47371 18.3214 8.90292 18.922C3.66423 24.4604 3.08377 29.1759 3.51427 32.1574C3.87222 34.6369 5.08153 36.8626 6.92449 38.5449C5.6862 37.9185 4.57846 37.0645 3.67874 36.024L3.68358 36.0344ZM25.8282 54.4356C24.0917 55.1138 22.4325 55.2379 20.8991 54.7983C19.5592 54.4149 18.379 53.6179 17.3922 52.4376C16.3812 51.2267 15.6267 49.6688 15.1525 47.8102C14.785 46.3765 14.335 45.1341 13.7982 44.0575C14.722 45.1498 15.5444 46.3765 16.1248 47.6806C17.4841 50.7451 19.7528 52.7845 22.5195 53.4316C23.134 53.5765 23.7627 53.649 24.4012 53.649C26.0797 53.649 27.8115 53.1522 29.519 52.1892C28.3 53.1985 27.0665 53.9541 25.8331 54.4356H25.8282ZM52.0554 39.9889C51.4364 41.8732 49.9465 43.2759 47.4987 44.28C46.1156 44.8443 44.8674 45.0927 43.6725 45.2326C44.4031 44.9737 45.1527 44.6476 45.9413 44.2024C49.3855 42.2665 51.112 39.2902 51.0688 35.3511C51.0544 33.9431 50.8076 32.4007 50.3382 30.708C50.8462 31.7743 51.3058 32.8665 51.6586 33.938C52.462 36.3761 52.5922 38.3533 52.0554 39.9889Z" fill="url(#paint0_linear_286_1364)"/>
<defs>
<linearGradient id="paint0_linear_286_1364" x1="16.1442" y1="53.1261" x2="44.8529" y2="6.65216" gradientUnits="userSpaceOnUse">
<stop offset="0.17" stop-color="#6E06C1"/>
<stop offset="0.25" stop-color="#5E24BD"/>
<stop offset="0.46" stop-color="#3D67B4"/>
<stop offset="0.64" stop-color="#239DAD"/>
<stop offset="0.8" stop-color="#0FC3A9"/>
<stop offset="0.92" stop-color="#04DBA6"/>
<stop offset="1" stop-color="#00E4A5"/>
</linearGradient>
</defs>
</svg>
