<svg width="213" height="19" viewBox="0 0 213 19" fill="none" xmlns="http://www.w3.org/2000/svg">
<path d="M11.8841 8.72571C14.3016 8.72571 15.5237 7.79884 15.5237 5.33607C15.5237 3.05864 14.5805 1.85372 12.2029 1.85372C11.9372 1.85372 11.0871 1.82724 11.0074 2.11854C10.9277 2.40984 10.9277 4.07818 10.9277 4.44894V8.71248L11.8841 8.72571ZM29.7632 10.8972L27.5582 5.1507L25.2071 10.8972H29.7632ZM50.246 1.70807C49.2895 1.84048 48.9176 2.52901 48.4393 3.37642L44.1887 10.5V13.1746C44.1887 15.3196 44.1357 16.4054 46.6331 16.326V17.2131H29.1921V16.3392C29.9359 16.2333 31.2642 16.2862 31.2642 15.227C31.2642 14.8298 30.9454 13.9558 30.7861 13.5851L30.2547 12.1551H24.7157L24.4101 12.8833C24.171 13.5189 23.7991 14.3134 23.7991 14.9754C23.7991 16.1935 24.9414 16.273 25.8713 16.3524V17.2528H17.5029L13.943 12.2213C13.1194 11.0826 12.0302 9.81149 11.3394 9.86444C11.2066 9.86444 11.0738 9.8909 10.941 9.8909V13.1746C10.941 15.2137 10.9144 16.4054 13.3319 16.326V17.2131H4.75098V16.3127C7.14195 16.3922 7.11537 15.227 7.11537 13.1614V4.75345C7.11537 2.71438 7.1685 1.5227 4.75098 1.60215V0.701772C6.18554 0.728251 7.5936 0.781217 9.00162 0.807696C10.3565 0.781217 11.6848 0.728251 13.0663 0.701772C14.2618 0.754734 16.0948 0.834179 17.2106 1.31085C18.8312 1.97289 19.6813 3.29698 19.6813 5.04478C19.6813 7.26922 17.7951 8.67275 15.7494 8.99054L19.1632 13.2408C19.6585 13.9801 20.1998 14.6877 20.7838 15.3594C20.9963 15.5712 21.3417 15.8625 21.7668 15.3594C22.4841 14.512 22.9091 13.2673 23.3076 12.3405L28.2755 0.450195H29.471L34.6249 13.2938C34.8906 13.9558 35.3953 15.2005 35.9001 15.7037C36.3853 16.0444 36.955 16.2459 37.5472 16.2862H38.052C40.4164 16.2862 40.3367 15.2535 40.3632 13.1349V10.9634L36.0329 3.28373C35.3688 2.1715 35.2359 1.88021 33.9342 1.58891V0.701772C35.1828 0.728251 36.458 0.781217 37.7066 0.807696C39.1412 0.781217 40.5492 0.728251 41.9838 0.701772V1.58891C41.3197 1.64187 40.0976 1.72132 40.0976 2.67466C40.0976 3.17781 40.7352 4.29002 41.0009 4.74022L43.498 9.2686L45.9157 5.24339C46.2345 4.63431 46.8722 3.49559 46.8722 2.83355C46.8722 1.7478 45.9157 1.58891 45.0389 1.58891V0.701772H55.825L60.7396 12.3537L65.256 0.701772C66.2126 0.728251 67.1687 0.781217 68.0985 0.807696C69.1081 0.781217 70.0909 0.728251 71.2599 0.701772V1.58891C68.8426 1.50946 68.9223 2.72762 68.8956 4.79318V12.6318C68.8651 13.4395 68.9274 14.2481 69.0814 15.0416C69.3472 16.1009 70.277 16.1803 71.2336 16.3392V17.2396H62.7587V16.3392C63.7152 16.1803 64.6713 16.0744 64.9105 15.0416C65.0525 14.2465 65.1148 13.4392 65.0966 12.6318V4.75345H65.0567L60.0489 17.2131H58.8536L53.6333 4.56808H53.5799V12.2213C53.5799 13.0157 53.5799 14.6311 53.9518 15.3196C54.3503 16.0611 55.2004 16.2465 55.9708 16.326V17.2131H49.9937V16.3127C50.9498 16.1538 51.9064 16.0479 52.1455 15.0151C52.2876 14.22 52.3499 13.4127 52.3312 12.6053V2.71438C52.1197 2.36574 51.8114 2.08537 51.4442 1.90688C51.0766 1.7284 50.6653 1.65937 50.2591 1.70807H50.246Z" fill="white"/>
<path d="M71.6055 9.00354C71.6055 3.65425 75.8828 0.50293 80.9305 0.50293C85.9778 0.50293 90.2284 3.70721 90.2284 9.00354C90.2284 14.2999 85.9248 17.5042 80.8508 17.5042C75.7764 17.5042 71.6055 14.2602 71.6055 9.00354ZM75.9358 8.84467C75.9358 12.0489 76.8126 16.3655 80.8508 16.3655C84.9682 16.3655 85.8981 12.605 85.8981 9.16242C85.8981 5.82574 85.0217 1.64164 80.8508 1.64164C76.8393 1.61516 75.9358 5.64037 75.9358 8.84467Z" fill="white"/>
<path d="M108.665 1.62889C106.406 1.65537 106.433 2.50279 106.433 5.57465V17.5709H105.211L93.8403 4.67428V12.3805C93.8403 14.2871 93.8403 16.2203 96.258 16.3262V17.2133H90.3601V16.313C92.4322 16.1011 92.5917 15.0948 92.5917 13.3206V3.32372C91.795 2.21149 91.4761 1.7613 90.0947 1.62889V0.728516C90.8914 0.754994 91.6885 0.807961 92.4857 0.83444C93.4418 0.807961 94.3716 0.754994 95.3282 0.728516L105.211 12.0892V5.44223C105.211 3.53557 105.211 1.70834 102.82 1.62889V0.728516H117.006C119.45 0.728516 121.735 1.20519 123.648 2.82057C125.64 4.54187 126.49 6.8193 126.49 9.38803C126.49 11.6919 125.773 13.7575 124.047 15.3464C122.267 16.9353 119.849 17.3325 117.511 17.2531C116.183 17.2266 109.435 17.2531 109.435 17.2531V16.3527C111.852 16.4321 111.799 15.267 111.799 13.2014V4.75374C111.799 2.7676 111.852 1.62889 109.435 1.62889H108.665ZM115.12 11.7184C115.12 12.4599 115.12 14.2077 115.359 14.8697C115.678 15.7436 116.501 16.0879 117.378 16.0879C121.257 16.0879 121.629 12.248 121.629 9.22911C121.629 7.5608 121.39 5.54819 120.619 4.03872C119.716 2.3439 117.989 1.86723 116.183 1.86723C115.97 1.86723 115.359 1.92019 115.173 2.10556C115.084 2.2957 115.048 2.50582 115.067 2.71464V11.7184H115.12Z" fill="white"/>
<path d="M135.737 11.3478C135.619 11.3875 135.511 11.4505 135.418 11.5331C135.019 11.8509 134.648 13.122 134.86 14.4462C134.988 15.164 135.387 15.8057 135.975 16.2392C136.563 16.6727 137.296 16.865 138.021 16.7765C140.545 16.4323 140.094 14.5521 140.094 9.22925V4.80679C140.094 2.74124 140.014 1.54956 137.57 1.60252V0.702148C138.819 0.728627 140.253 0.781593 141.528 0.808072C143.096 0.781593 144.876 0.728627 146.47 0.702148V1.58928C144.398 1.64225 144.105 1.98651 144.105 4.79356V10.8049C144.105 14.936 143.016 17.1075 139.058 17.7961C136.162 18.2992 132.257 17.6636 131.167 14.8036C130.636 13.4001 130.849 11.8642 130.849 11.2286L134.541 10.5136L135.551 10.3282L135.737 11.3345" fill="white"/>
<path d="M153.615 10.8976L151.411 5.15112L149.046 10.8976H153.615ZM196.52 11.9834H197.503C198.194 14.2608 199.363 16.3529 202.126 16.3529C203.587 16.3529 204.995 15.3995 204.995 13.8636C204.995 11.5332 202.578 10.8976 200.824 10.1562C198.566 9.17633 196.733 7.93172 196.733 5.17762C196.733 2.10573 199.097 0.463867 201.993 0.463867C203.348 0.463867 204.756 0.755164 205.739 1.68203L206.058 0.702202H207.147L207.306 5.20408H206.217C205.765 3.27092 204.331 1.58934 202.139 1.58934C200.917 1.58934 199.669 2.27786 199.669 3.62843C199.669 5.50864 201.581 6.01176 202.989 6.67384C205.672 7.81253 208.196 9.00419 208.196 12.3409C208.196 15.6776 205.393 17.4784 202.338 17.4784C200.744 17.4784 199.097 16.9487 197.981 15.7835L197.623 17.2135H172.65V16.3132C173.607 16.1542 174.563 16.0483 174.802 15.0155C174.944 14.2204 175.007 13.4132 174.988 12.6057V4.75392H174.935L169.927 17.2135H168.732L163.472 4.55527H163.419V12.2085C163.419 13.0029 163.419 14.6183 163.79 15.3068C164.189 16.0483 165.039 16.2337 165.783 16.3132V17.2135H152.991V16.3132C153.735 16.2072 155.063 16.2602 155.063 15.2009C155.063 14.8037 154.744 13.9298 154.585 13.5591L154.054 12.129H148.528L148.236 12.8441C148.023 13.4796 147.625 14.2741 147.625 14.9361C147.625 16.1542 148.767 16.2337 149.697 16.3132V17.2135H144.118V16.3396C145.128 16.1542 145.739 15.3333 146.217 14.433C146.562 13.7444 146.854 13.0559 147.12 12.3674L152.088 0.477109H153.283L158.437 13.3207C158.703 13.9828 159.208 15.2539 159.712 15.7305C159.889 15.8936 160.097 16.0197 160.323 16.1013C160.529 16.1808 160.756 16.1808 160.961 16.1013C161.199 16.0233 161.413 15.8844 161.581 15.6986C161.749 15.5128 161.865 15.2864 161.918 15.042C162.06 14.2469 162.122 13.4396 162.103 12.6322V2.68833C161.652 1.81443 160.669 1.65554 159.765 1.5761V0.675719C160.669 0.702202 161.599 0.755164 162.502 0.781647C163.565 0.755164 164.574 0.702202 165.637 0.675719L170.552 12.3277L175.068 0.675719H195.179L195.391 5.07166H194.302C193.877 2.60888 192.442 1.81443 190.051 1.81443C189.759 1.81443 188.139 1.81443 188.006 2.07925C187.926 2.21166 187.926 3.29741 187.926 3.50926V8.14355C189.945 8.14355 191.247 7.7728 191.353 5.46891H192.363C192.336 6.60761 192.283 7.7728 192.257 8.9115C192.283 9.94432 192.336 10.9771 192.363 12.0099H191.353C190.875 9.70595 190.237 9.33525 187.926 9.33525V12.2217C187.926 14.5786 187.847 16.0616 190.822 16.0616H192.07C194.727 16.0086 195.737 15.1347 196.374 12.4071C196.438 12.2714 196.487 12.1294 196.52 11.9834ZM184.14 4.75392C184.14 3.13852 184.167 2.07925 183.024 1.73499C182.684 1.66048 182.337 1.62494 181.989 1.62906H180.886C180.547 1.62356 180.207 1.65913 179.877 1.73499C178.734 2.07925 178.761 3.165 178.761 4.75392V13.1751C178.761 14.7904 178.734 15.8497 179.877 16.194C180.217 16.2685 180.564 16.304 180.912 16.2999H182.002C182.341 16.3054 182.68 16.2698 183.011 16.194C184.154 15.8497 184.127 14.764 184.127 13.1751L184.14 4.75392Z" fill="white"/>
</svg>
