<svg width="213" height="31" viewBox="0 0 213 31" fill="none" xmlns="http://www.w3.org/2000/svg">
<path d="M27.4811 29.8232V0H34.1956V29.8232H27.4811ZM158.006 18.6809C158.006 11.4737 152.478 7.00015 146.009 7.00015C139.5 7.00015 134.013 11.5151 134.013 18.6809C134.013 25.8882 139.54 30.4031 146.009 30.4031C152.478 30.4031 158.006 25.8468 158.006 18.6809ZM151.373 18.6809C151.373 22.4503 148.875 24.5627 145.969 24.5627C143.061 24.5627 140.564 22.4503 140.564 18.6809C140.564 14.8702 143.061 12.8406 145.969 12.8406C148.875 12.8406 151.373 14.8702 151.373 18.6809ZM24.7789 21.2491C24.7789 17.8939 23.0593 15.3258 19.9886 14.166C22.8955 12.5506 23.9191 10.4381 23.9191 7.95285C23.9191 3.60364 20.8074 0 13.8472 0.0414211H0.5V29.8646H14.4204C21.4216 29.8232 24.7789 26.3024 24.7789 21.2491ZM16.7951 8.82268C16.7951 10.8523 15.5259 12.0121 13.0693 12.0121H7.50116V5.79895H13.0693C15.3212 5.79895 16.7951 6.79306 16.7951 8.82268ZM17.4092 20.7934C17.4092 22.7402 16.0581 24.0243 13.5606 24.0243H7.50116V17.5625H13.5606C15.9762 17.5625 17.4092 18.8052 17.4092 20.7934ZM83.2446 13.0891C81.4024 9.1955 77.9629 7.04161 72.7635 7.04161C66.622 7.04161 61.1359 10.9352 61.1359 18.6809C61.1359 26.2196 65.9671 30.4031 72.6816 30.4031C77.3899 30.4031 81.3613 28.4978 83.2446 24.3971L77.8403 21.5804C76.8575 23.4029 75.3428 24.5627 72.9272 24.5627C69.8156 24.5627 67.8093 22.326 67.8093 18.6809C67.8093 15.0359 70.1023 12.8406 72.8861 12.8406C75.0561 12.8406 76.6938 13.8347 77.7173 15.9886L83.2446 13.0891ZM182.202 13.0891C180.36 9.1955 176.921 7.04161 171.721 7.04161C165.58 7.04161 160.094 10.9352 160.094 18.6809C160.094 26.2196 164.925 30.4031 171.639 30.4031C176.348 30.4031 180.319 28.4978 182.202 24.3971L176.798 21.5804C175.815 23.4029 174.301 24.5627 171.885 24.5627C168.773 24.5627 166.767 22.326 166.767 18.6809C166.767 15.0359 169.06 12.8406 171.844 12.8406C174.014 12.8406 175.652 13.8347 176.675 15.9886L182.202 13.0891ZM125.907 29.8232L120.297 19.7993H115.999V29.8232H109.08V0H121.567C128.322 0 133.031 3.27227 133.031 9.69256C133.031 13.7933 131.025 16.6927 127.462 18.4738L133.931 29.8232H125.907ZM116.04 13.8761H121.198C124.392 13.8761 125.948 12.0535 125.948 9.89965C125.948 7.33152 124.474 5.92323 121.198 5.92323H116.04V13.8761ZM60.0301 29.4504V24.7698C59.7438 24.8527 59.3345 24.9355 58.884 24.9355C58.0242 24.9355 57.5738 24.4799 57.5738 23.6929V15.9472C57.5738 10.1482 53.7253 7.08302 47.379 7.08302C43.2438 7.08302 39.7228 8.61559 37.512 10.6038L41.2377 14.8288C42.7117 13.5033 44.6771 12.6749 46.6011 12.6749C49.549 12.6749 50.9411 14.166 50.9411 16.6099V17.314C49.549 16.9827 47.7883 16.6513 45.6594 16.6513C40.2961 16.6513 36.816 19.2608 36.816 23.5686C36.816 28.0007 39.7228 30.3203 44.2266 30.3203C47.2971 30.3203 50.0402 29.0362 51.4735 27.3794C52.3332 29.5747 54.2165 30.1546 56.0591 30.1546C57.3282 30.196 58.8022 29.9889 60.0301 29.4504ZM50.9818 22.4503C50.9818 24.4799 49.0578 25.8053 46.8467 25.8053C44.7589 25.8053 43.735 24.7284 43.735 23.2373C43.735 21.6632 44.8815 20.5034 47.2153 20.5034C48.6485 20.5034 49.9176 20.752 50.9818 21.0005V22.4503ZM206.195 29.8232L198.293 15.9472L205.704 7.78716H198.252L190.432 16.5684V0.0414211H183.758V29.8646H190.432V24.4799L193.626 21.042L198.621 29.8646H206.195V29.8232ZM107.319 29.8232L99.4171 15.9472L106.828 7.78716H99.2941L91.5561 16.5684V0.0414211H84.8823V29.8646H91.5561V24.4799L94.7496 21.042L99.7446 29.8646H107.319V29.8232ZM210.289 25.6811C211.681 25.6811 212.5 26.551 212.5 27.8764C212.5 29.2019 211.681 30.0717 210.289 30.0717C208.897 30.0717 208.078 29.2019 208.078 27.8764C208.078 26.551 208.897 25.6811 210.289 25.6811ZM210.289 29.7818C211.395 29.7818 212.131 29.119 212.131 27.8764C212.131 26.6338 211.353 25.971 210.289 25.971C209.183 25.971 208.447 26.6338 208.447 27.8764C208.406 29.1605 209.183 29.7818 210.289 29.7818ZM209.429 26.758H210.33C210.862 26.758 211.149 27.048 211.149 27.4622C211.149 27.835 210.985 28.0421 210.699 28.1664L211.108 28.9534H210.699L210.33 28.2492H209.839V28.9534H209.429V26.758ZM209.839 27.0894V27.8764H210.289C210.576 27.8764 210.739 27.7936 210.739 27.5036C210.739 27.2551 210.617 27.1308 210.33 27.1308H209.839V27.0894Z" fill="white"/>
</svg>
