<svg width="213" height="35" viewBox="0 0 213 35" fill="none" xmlns="http://www.w3.org/2000/svg">
<path fill-rule="evenodd" clip-rule="evenodd" d="M8.77643 17.6422C9.0416 17.6422 9.32072 17.6841 9.58594 17.7538C9.85111 17.8376 10.1023 17.9632 10.3256 18.1167C10.5489 18.2702 10.7583 18.4517 10.9257 18.661C11.0932 18.8843 11.2328 19.1216 11.3444 19.3728C11.5119 19.8194 11.7259 20.2428 11.9865 20.6429C12.247 21.0522 12.5447 21.4244 12.8797 21.7594C13.2239 22.1036 13.5961 22.406 13.9962 22.6666C14.3963 22.9271 14.8196 23.1411 15.2662 23.3085C15.5314 23.4062 15.7687 23.5458 15.978 23.7272C16.1874 23.8947 16.3827 24.1041 16.5363 24.3274C16.6898 24.5507 16.8014 24.8019 16.8852 25.0671C16.9689 25.3323 16.9969 25.5974 16.9969 25.8765V31.4033C16.9969 31.7662 16.9271 32.1291 16.7875 32.4641C16.6479 32.799 16.4386 33.106 16.1874 33.3573C15.9222 33.6085 15.6291 33.8039 15.2942 33.9434C14.9453 34.083 14.5963 34.1528 14.2334 34.1389C13.8706 34.1668 13.5077 34.1109 13.1728 33.9853C12.8239 33.8457 12.5168 33.6504 12.2656 33.3852C12.0144 33.134 11.805 32.813 11.6933 32.478C11.5678 32.1431 11.5119 31.7662 11.5399 31.4033V26.9931L5.18961 33.3573C4.92444 33.6085 4.63134 33.8039 4.29639 33.9434C3.97539 34.083 3.61251 34.1528 3.2636 34.1528C2.90073 34.1528 2.55182 34.083 2.21686 33.9434C1.8819 33.8039 1.58882 33.6085 1.32364 33.3573V33.3433C1.07242 33.0781 0.87703 32.7851 0.737465 32.4501C0.611856 32.1152 0.542073 31.7662 0.542073 31.4033C0.542073 31.0544 0.611856 30.6916 0.737465 30.3706C0.87703 30.0356 1.07242 29.7286 1.32364 29.4774L7.68781 23.1132H3.2636C2.90073 23.1271 2.53786 23.0853 2.2029 22.9596C1.86794 22.834 1.54695 22.6386 1.29573 22.3874C1.03055 22.1222 0.835161 21.8152 0.709552 21.4803C0.569987 21.1453 0.51416 20.7824 0.542073 20.4195C0.528117 20.0567 0.597899 19.6938 0.737465 19.3589C0.87703 19.0239 1.07242 18.7168 1.32364 18.4517C1.57486 18.2004 1.8819 17.9911 2.21686 17.8515C2.55182 17.712 2.90073 17.6422 3.2636 17.6422H8.77643ZM31.9025 17.6562C32.2653 17.6562 32.6282 17.7259 32.9631 17.8655C33.2841 18.0051 33.5912 18.2144 33.8424 18.4656C34.1076 18.7308 34.303 19.0239 34.4425 19.3728C34.5681 19.7078 34.6379 20.0567 34.6379 20.4195C34.6519 20.7824 34.596 21.1453 34.4705 21.4942C34.3448 21.8292 34.1355 22.1362 33.8843 22.3874C33.6191 22.6386 33.312 22.848 32.9631 22.9736C32.6282 23.0992 32.2653 23.1411 31.9025 23.1132H27.4922L33.8564 29.4913C34.0936 29.7425 34.303 30.0496 34.4286 30.3706C34.5681 30.7055 34.6379 31.0684 34.6379 31.4173C34.6379 31.7802 34.5681 32.1291 34.4286 32.4641C34.303 32.7851 34.0936 33.0921 33.8564 33.3433C33.5912 33.5945 33.2981 33.7899 32.9631 33.9295C32.6282 34.0551 32.2793 34.1249 31.9164 34.1249C31.5675 34.1249 31.2186 34.0551 30.8836 33.9295C30.5487 33.7899 30.2556 33.5945 29.9904 33.3433L23.6262 26.9652V31.3894C23.6541 31.7523 23.6122 32.1152 23.4866 32.4641C23.361 32.799 23.1656 33.106 22.9144 33.3713C22.6632 33.6224 22.3562 33.8318 22.0072 33.9574C21.6723 34.097 21.3094 34.1389 20.9466 34.1249C20.5837 34.1249 20.2348 34.0551 19.8858 33.9295C19.5509 33.7899 19.2438 33.5945 18.9926 33.3433C18.7275 33.0781 18.5321 32.7851 18.3925 32.4501C18.2529 32.1152 18.1832 31.7523 18.1832 31.3894V25.8905C18.1832 25.6114 18.2111 25.3323 18.2948 25.081C18.3786 24.8159 18.4902 24.5646 18.6437 24.3274C18.7973 24.1041 18.9787 23.9087 19.202 23.7272C19.4113 23.5598 19.6486 23.4202 19.9138 23.3225C20.3604 23.1457 20.7837 22.9271 21.1838 22.6666C21.5839 22.406 21.9514 22.1083 22.2864 21.7733C22.6306 21.4291 22.933 21.0569 23.1935 20.6568C23.4541 20.2567 23.6681 19.8334 23.8356 19.3868C23.9472 19.1216 24.0868 18.8843 24.2543 18.675C24.4217 18.4517 24.6311 18.2702 24.8544 18.1167C25.0777 17.9632 25.3289 17.8515 25.5941 17.7678C25.8593 17.6841 26.1384 17.6562 26.4036 17.6562H31.9025ZM90.7989 1.3549V9.99401H96.3817V14.5578H90.7989V24.6484C90.7989 27.6072 91.4828 28.4306 93.5066 28.4306C93.758 28.4306 94.0044 28.426 94.2465 28.4166C94.4882 28.398 94.7303 28.3748 94.9719 28.3469C95.2141 28.319 95.4557 28.2817 95.6978 28.2352C95.9306 28.1887 96.1676 28.1329 96.4097 28.0677V32.813C96.0095 32.9153 95.6143 33.0037 95.2234 33.0781C94.8231 33.1526 94.4186 33.2177 94.009 33.2735C93.6092 33.3201 93.209 33.3573 92.8087 33.3852C92.3995 33.4131 91.99 33.4271 91.5808 33.4271V33.3992C86.5004 33.3992 84.9371 31.5429 84.9371 26.1976V14.5578H80.9736V9.99401H84.8956V2.91804L90.7989 1.3549ZM193.324 9.50552C194.72 9.53346 196.129 9.673 197.511 9.92422L197.329 14.5857C196.985 14.4834 196.636 14.3996 196.283 14.3345C195.939 14.26 195.585 14.1949 195.222 14.1391C194.868 14.0926 194.515 14.0554 194.161 14.0274C193.798 13.9995 193.44 13.9856 193.087 13.9856C190.784 13.9856 189.667 14.9486 189.667 16.3443C189.667 20.0706 199.088 18.4098 199.088 25.8486C199.088 30.3706 195.124 33.4271 188.844 33.4271L188.872 33.4131C188.472 33.4038 188.067 33.3898 187.658 33.3713C187.257 33.3526 186.857 33.3247 186.457 33.2875C186.057 33.2596 185.652 33.2177 185.243 33.1619C184.843 33.1154 184.447 33.0595 184.057 32.9944L184.182 28.1654C184.592 28.2771 184.996 28.3701 185.397 28.4446C185.806 28.5283 186.22 28.5981 186.639 28.6539C187.048 28.719 187.462 28.7656 187.881 28.7935C188.29 28.8214 188.704 28.84 189.123 28.8493C191.384 28.8493 192.863 27.8863 192.863 26.4069C192.863 22.3456 183.582 24.6484 183.582 16.8467C183.582 12.8411 186.862 9.50552 193.324 9.50552ZM144.002 9.49157C150.687 9.49157 153.645 14.0693 153.645 19.7357C153.645 19.959 153.645 20.1823 153.645 20.4056C153.636 20.6289 153.622 20.8522 153.604 21.0755C153.585 21.2988 153.566 21.5221 153.548 21.7454C153.52 21.9687 153.492 22.192 153.464 22.4153H139.256C139.2 26.7139 141.322 28.7795 145.564 28.7795C146.142 28.7795 146.714 28.7516 147.281 28.6958C147.858 28.6307 148.426 28.5376 148.984 28.4166C149.551 28.305 150.11 28.1561 150.659 27.97C151.199 27.7933 151.733 27.5886 152.264 27.356L152.808 31.9337C152.157 32.1756 151.492 32.3896 150.812 32.5757C150.142 32.7618 149.463 32.92 148.775 33.0502C148.086 33.1712 147.393 33.2642 146.695 33.3294C145.997 33.3852 145.299 33.4131 144.602 33.4131C137.316 33.4131 133.255 29.7565 133.255 21.6756C133.255 14.6555 137.107 9.49157 144.002 9.49157ZM59.0201 1.53634C59.5781 1.53634 60.1365 1.55495 60.6949 1.59216C61.2436 1.62938 61.7973 1.68055 62.3557 1.74568C62.9044 1.82012 63.4488 1.90851 63.9886 2.01086C64.5376 2.11321 65.0816 2.23882 65.6214 2.38769L64.9795 7.83076C64.4677 7.67257 63.9513 7.53299 63.4302 7.41206C62.9184 7.30038 62.3973 7.20269 61.8673 7.11895C61.3462 7.03521 60.8204 6.97475 60.29 6.93752C59.7596 6.89101 59.2292 6.86773 58.6992 6.86773C52.9069 6.86773 50.0182 11.2501 50.0182 17.2933C50.0182 24.0483 52.8374 27.9142 59.1037 27.9142C59.6154 27.8956 60.1319 27.8584 60.653 27.8026C61.1647 27.7374 61.6718 27.649 62.1743 27.5374C62.6767 27.4258 63.1745 27.2908 63.6676 27.1326C64.1607 26.9745 64.6492 26.7931 65.1329 26.5884L65.8169 31.9337C65.1749 32.1663 64.5237 32.371 63.8631 32.5478C63.2025 32.7153 62.5372 32.8595 61.8673 32.9805C61.188 33.0921 60.5088 33.1805 59.8296 33.2456C59.1503 33.3015 58.4711 33.3294 57.7918 33.3294V33.3433C46.9056 33.3433 43.4305 26.1138 43.4305 18.354C43.4305 8.47274 48.5944 1.53634 59.0201 1.53634ZM171.663 9.44972C176.841 9.44972 178.502 12.7714 178.502 16.7909V32.9107L172.64 32.9386V18.2563C172.64 15.8558 171.998 14.4043 169.835 14.4043C166.834 14.4043 164.476 17.8236 164.476 21.8292V32.9107H158.572V9.99401H164.155C164.155 10.3383 164.15 10.6779 164.141 11.0128C164.122 11.3571 164.099 11.6967 164.071 12.0317C164.043 12.3759 164.011 12.7155 163.973 13.0505C163.936 13.3855 163.89 13.725 163.834 14.0693H163.876C164.238 13.3436 164.699 12.6876 165.243 12.1015C165.788 11.5153 166.416 11.0128 167.099 10.6081C167.783 10.2033 168.523 9.89632 169.305 9.7009C170.072 9.50552 170.868 9.42178 171.663 9.44972ZM129.333 9.99401V14.1949L120.289 27.5513C121.057 27.5234 122.802 27.5095 124.336 27.5095H129.528V32.9107L113.018 32.9386V28.7516L122.229 15.1579C121.406 15.2137 119.745 15.2556 117.693 15.2556H113.283V9.99401H129.333ZM101.853 9.99401H107.756V32.9386H101.853V9.99401ZM70.9388 9.99401H76.8286V32.9526H70.9388V9.99401ZM143.806 13.8181C141.377 13.8181 139.661 15.6185 139.354 18.3819H147.784C147.867 15.4929 146.304 13.8181 143.806 13.8181ZM14.2055 0.00111692C14.5684 0.00111692 14.9313 0.0708998 15.2662 0.196509C15.6012 0.336074 15.9082 0.531467 16.1595 0.796641C16.4107 1.04786 16.62 1.3549 16.7596 1.68986C16.8991 2.01086 16.9689 2.37373 16.9689 2.7366V8.23547C16.9689 8.51463 16.941 8.79375 16.8573 9.04497C16.7735 9.31014 16.6619 9.56136 16.5084 9.79863C16.3548 10.0219 16.1734 10.2173 15.9501 10.3988C15.7408 10.5662 15.5035 10.7058 15.2523 10.8035C14.7963 10.9803 14.3684 11.1989 13.9683 11.4594C13.5682 11.72 13.2007 12.0177 12.8657 12.3527C12.5215 12.6969 12.2191 13.0691 11.9585 13.4692C11.698 13.8693 11.484 14.2973 11.3165 14.7532C11.2049 15.0044 11.0653 15.2417 10.8978 15.451C10.7304 15.6743 10.521 15.8558 10.2977 16.0093C10.0744 16.1628 9.82316 16.2745 9.55799 16.3582C9.29282 16.4419 9.02765 16.4698 8.74854 16.4698H3.23569C2.87282 16.4698 2.5239 16.4001 2.18895 16.2605C1.85399 16.1209 1.54695 15.9116 1.29573 15.6603C1.04451 15.3952 0.849117 15.1021 0.709552 14.7671C0.583943 14.4182 0.51416 14.0693 0.528117 13.7065C0.500204 13.3436 0.55603 12.9807 0.681639 12.6458C0.807248 12.2968 1.01659 11.9898 1.26781 11.7386C1.53299 11.4873 1.84003 11.292 2.17499 11.1664C2.50995 11.0407 2.87282 10.9849 3.23569 11.0128H7.65992L1.29573 4.63469C1.05846 4.38347 0.849117 4.07643 0.723508 3.75543C0.583943 3.42047 0.51416 3.07156 0.51416 2.70869C0.51416 2.34582 0.583943 1.9969 0.723508 1.66195C0.849117 1.34095 1.05846 1.0339 1.29573 0.782683H1.3376C1.60277 0.531467 1.89586 0.336074 2.23082 0.210465C2.56577 0.0708998 2.91469 0.00111692 3.2636 0.00111692C3.62647 0.00111692 3.97539 0.0708998 4.31034 0.210465C4.6453 0.336074 4.93839 0.531467 5.20356 0.782683L11.5678 7.16084L11.5119 2.7366C11.484 2.37373 11.5399 2.01086 11.6654 1.66195C11.791 1.32699 11.9865 1.01994 12.2377 0.754771C12.4889 0.503551 12.7959 0.294205 13.1448 0.168595C13.4798 0.0429866 13.8427 -0.0128396 14.2055 0.00111692ZM33.8564 0.782683C34.1076 1.04786 34.303 1.34095 34.4425 1.6759C34.5681 2.01086 34.6379 2.35977 34.6379 2.72264C34.6379 3.07156 34.5681 3.43443 34.4425 3.75543C34.303 4.09039 34.1076 4.39742 33.8564 4.64864L27.4922 11.0268H31.9025C32.2653 10.9989 32.6282 11.0407 32.9771 11.1664C33.312 11.292 33.6191 11.4873 33.8843 11.7386C34.1355 11.9898 34.3448 12.2968 34.4705 12.6458C34.61 12.9807 34.6658 13.3436 34.6379 13.7065C34.6379 14.0693 34.5821 14.4322 34.4425 14.7671C34.303 15.1021 34.1076 15.4092 33.8564 15.6603C33.6052 15.9256 33.2981 16.1209 32.9631 16.2605C32.6282 16.4001 32.2653 16.4698 31.9025 16.4698H26.4175C26.1384 16.4838 25.8593 16.4419 25.608 16.3582C25.3429 16.2884 25.0917 16.1628 24.8544 16.0093C24.6311 15.8558 24.4357 15.6743 24.2543 15.451C24.0868 15.2417 23.9472 15.0044 23.8495 14.7532C23.6727 14.2973 23.4541 13.8693 23.1935 13.4692C22.933 13.0691 22.6353 12.6969 22.3003 12.3527C21.9654 12.0177 21.5932 11.72 21.1838 11.4594C20.7837 11.1989 20.3604 10.9803 19.9138 10.8035C19.6625 10.7058 19.4253 10.5662 19.202 10.3988C18.9926 10.2173 18.8112 10.0219 18.6577 9.79863C18.5041 9.56136 18.3786 9.31014 18.2948 9.04497C18.225 8.79375 18.1832 8.51463 18.1832 8.23547V2.7366C18.1832 2.37373 18.2529 2.01086 18.3925 1.6759C18.5321 1.34095 18.7414 1.04786 18.9926 0.782683C19.2578 0.531467 19.5649 0.336074 19.8998 0.196509C20.2348 0.0708998 20.5976 0.00111692 20.9605 0.00111692C21.3234 -0.0128396 21.6863 0.0429866 22.0212 0.168595C22.3562 0.294205 22.6632 0.503551 22.9144 0.754771C23.1796 1.01994 23.375 1.32699 23.4866 1.6759C23.6122 2.01086 23.6681 2.37373 23.6402 2.7366V7.16084L30.0043 0.782683C30.2556 0.531467 30.5626 0.336074 30.8836 0.210465C31.2186 0.0708998 31.5675 0.00111692 31.9304 0.00111692C32.2793 0.00111692 32.6421 0.0708998 32.9631 0.210465C33.2981 0.336074 33.6052 0.531467 33.8564 0.782683ZM208.202 9.673L209.164 12.562C209.248 12.7853 209.313 13.0086 209.36 13.2319L209.444 13.5808C209.462 13.4971 209.481 13.4134 209.499 13.3296C209.518 13.2552 209.541 13.1761 209.569 13.0923C209.588 13.0086 209.611 12.9295 209.639 12.8551C209.658 12.7714 209.681 12.6923 209.709 12.6179L210.672 9.71489H211.635L212.389 14.6555L211.537 14.5857L211.16 11.9619C211.077 11.5013 211.049 11.1803 211.021 10.8872L211.007 10.7477C210.988 10.8314 210.969 10.9152 210.951 10.9989C210.933 11.0733 210.914 11.1524 210.895 11.2362C210.877 11.3199 210.853 11.399 210.825 11.4734C210.807 11.5571 210.784 11.6362 210.756 11.7107L209.792 14.6136H208.955L208.076 11.9479C208.057 11.8735 208.034 11.8037 208.006 11.7386C207.978 11.6641 207.955 11.5897 207.937 11.5153C207.918 11.4408 207.899 11.3664 207.881 11.292C207.862 11.2175 207.843 11.1431 207.825 11.0687L207.769 10.7756C207.769 11.2082 207.685 11.5851 207.643 12.0596L207.322 14.6136H206.513L207.239 9.673H208.202ZM206.387 9.6451V10.315H205.019V14.5857H204.21V10.315H202.856V9.6451H206.387ZM104.923 1.18742C105.37 1.18742 105.816 1.27116 106.235 1.4526C106.64 1.62008 107.017 1.87129 107.337 2.1923C107.658 2.49934 107.91 2.87617 108.077 3.29486C108.245 3.6996 108.342 4.14621 108.342 4.5928C108.342 5.03944 108.245 5.47209 108.077 5.89079C107.91 6.2955 107.672 6.67235 107.351 6.99336C107.044 7.31433 106.682 7.56555 106.277 7.74702C105.872 7.92845 105.44 8.02614 104.993 8.05404H104.811C103.904 8.04009 103.025 7.66328 102.397 7.00731C101.769 6.35134 101.42 5.47209 101.434 4.5649C101.448 3.64378 101.825 2.77847 102.481 2.15043C103.136 1.50843 104.016 1.17347 104.923 1.18742ZM74.0094 1.18742C74.4559 1.18742 74.9028 1.27116 75.3212 1.4526C75.7262 1.62008 76.1027 1.87129 76.4236 2.1923C76.745 2.49934 76.996 2.87617 77.1635 3.29486C77.331 3.6996 77.4285 4.14621 77.4285 4.5928C77.4285 5.05339 77.331 5.49999 77.1495 5.93264C76.9681 6.35134 76.7031 6.72819 76.3821 7.04916C76.0471 7.37017 75.6562 7.63534 75.2377 7.80282C74.8048 7.9703 74.3583 8.05404 73.8979 8.05404C72.9765 8.04009 72.1111 7.66328 71.4832 7.00731C70.8552 6.35134 70.5063 5.47209 70.5203 4.5649C70.5343 3.64378 70.9108 2.77847 71.5671 2.15043C72.2231 1.50843 73.102 1.17347 74.0094 1.18742Z" fill="white"/>
</svg>
