<svg width="213" height="52" viewBox="0 0 213 52" fill="none" xmlns="http://www.w3.org/2000/svg">
<path fill-rule="evenodd" clip-rule="evenodd" d="M76.0466 0.137695L93.9734 41.2809C93.9734 41.2809 96.6802 46.6258 101.058 48.5733C102.785 49.3466 106.597 49.0977 106.597 49.0977C106.597 49.0977 113.861 48.2277 114.013 39.6374C114.11 34.5135 110.726 32.3451 108.71 31.1436C105.022 28.9062 91.0868 25.0529 91.4734 14.8189C91.7083 8.2448 97.3433 1.87789 104.567 1.87789C109.4 1.87789 110.547 4.00479 113.24 4.00479C116.43 4.00479 117.867 1.3945 117.867 1.3945L119.22 14.4321H117.867C117.867 14.4321 114.98 3.42473 104.567 3.42473C97.0533 3.42473 97.0808 10.275 97.0533 11.0485C96.8599 16.1724 102.674 18.7965 109.193 21.1858C116.817 23.9894 121.527 30.0801 121.72 35.2869C121.913 40.5075 117.148 50.1616 105.437 50.6034C98.6967 50.8518 96.4733 47.9377 92.2333 48.6144C89.7058 49.0291 88.5733 51.515 88.5733 51.515L80.3833 30.7569H64.4867L61.0201 38.5739C61.0201 38.5739 58.5066 44.0844 60.44 46.7776C62.3599 49.4849 66.4066 49.0011 66.4066 49.0011V50.5483H39.4334V49.0011C39.4334 49.0011 42.5133 49.9682 44.6401 47.0676C46.7533 44.181 46.3666 41.6676 46.3666 41.6676V6.03504L28.8265 50.5483L10.3335 6.89131L10.1401 38.9606C10.1401 38.9606 10.4302 45.7142 12.3499 47.4543C14.2834 49.1948 16.9766 49.1948 16.9766 49.1948V50.5483H0.5V49.1948C0.5 49.1948 4.68476 49.5536 6.28684 46.681C8.4966 42.731 8.59327 38.3806 8.59327 38.3806V9.79164C8.59327 9.79164 8.15133 7.1399 7.23982 6.13171C5.70676 4.39149 2.04684 4.00479 2.04684 4.00479V3.03802H18.0401L32.1136 37.2205L45.6899 3.03802H60.6334V4.00479C60.6334 4.00479 57.609 4.26721 56.3934 5.16495C54.5566 6.5184 54.4599 7.85807 54.4599 7.85807V48.0344L55.33 46.5843C55.33 46.5843 57.2634 42.151 58.4099 39.9274C59.57 37.7038 63.23 29.7901 63.9067 28.0499C64.5834 26.3097 76.0466 0.137695 76.0466 0.137695ZM79.8033 29.21L72.6767 11.4351L64.9701 29.21H79.8033ZM161.427 42.151C155.971 50.396 147.933 50.6449 145.226 50.7416C140.033 50.9349 122.3 46.971 122.493 26.9864C122.687 6.50462 139.26 1.87789 146 1.68454C152.753 1.49118 153.9 4.19815 156.8 3.81144C159.687 3.42473 161.523 1.00779 161.523 1.00779L162.38 14.6255H161.427C161.427 14.6255 158.43 3.03802 146.29 3.1347C132.506 3.24519 131.443 21.2548 131.36 27.0831C131.263 33.3533 133.197 49.3466 145.71 48.9044C159.397 48.421 161.993 35.867 161.993 35.867C161.993 35.867 165.183 36.447 161.427 42.151ZM162.96 25.923C162.96 11.5318 174.202 1.29783 187.82 1.29783C201.451 1.29783 212.486 10.3717 212.486 25.923C212.486 39.5269 201.354 50.5483 187.723 50.5483C174.105 50.5483 162.38 40.8942 162.96 25.923ZM187.723 48.9044C197.557 48.9044 203.606 38.8363 203.606 25.923C203.606 13.0096 198.62 2.55463 187.82 2.74799C177.71 2.65131 171.827 13.0096 171.827 25.923C171.827 38.8363 177.42 48.7111 187.723 48.9044Z" fill="white"/>
</svg>
